<svg width="1600" height="900" viewBox="0 0 1600 900" fill="none" xmlns="http://www.w3.org/2000/svg">
  <defs>
    <pattern id="grid" width="80" height="80" patternUnits="userSpaceOnUse">
      <path d="M80 0H0V80" stroke="#D4AF37" stroke-opacity="0.22" stroke-width="1"/>
    </pattern>
    <pattern id="dots" width="160" height="160" patternUnits="userSpaceOnUse">
      <circle cx="16" cy="16" r="2" fill="#D4AF37" fill-opacity="0.28"/>
      <circle cx="112" cy="48" r="1.5" fill="#D4AF37" fill-opacity="0.18"/>
      <circle cx="64" cy="120" r="2" fill="#D4AF37" fill-opacity="0.16"/>
      <circle cx="144" cy="136" r="1.5" fill="#D4AF37" fill-opacity="0.22"/>
    </pattern>
    <linearGradient id="glow" x1="0" y1="0" x2="1600" y2="900" gradientUnits="userSpaceOnUse">
      <stop stop-color="#D4AF37" stop-opacity="0.22"/>
      <stop offset="0.5" stop-color="#D4AF37" stop-opacity="0.08"/>
      <stop offset="1" stop-color="#D4AF37" stop-opacity="0.18"/>
    </linearGradient>
  </defs>
  <rect width="1600" height="900" fill="url(#grid)"/>
  <rect width="1600" height="900" fill="url(#dots)"/>
  <path d="M-120 760C120 620 340 560 560 600C800 644 980 760 1220 744C1380 732 1510 660 1660 564" stroke="url(#glow)" stroke-width="2" stroke-linecap="round"/>
  <path d="M-80 520C120 404 300 364 472 402C620 434 730 514 884 534C1068 558 1220 494 1440 346" stroke="url(#glow)" stroke-width="1.5" stroke-linecap="round" stroke-dasharray="3 14"/>
  <circle cx="1180" cy="244" r="120" fill="#D4AF37" fill-opacity="0.05"/>
  <circle cx="420" cy="680" r="160" fill="#D4AF37" fill-opacity="0.04"/>
</svg>
